#!OML:ASF E:\inclinewalkrobotboard\Project 1\Capture day 1\Session 1\subject1.ASF
:FULLY-SPECIFIED
:DEGREES
164
root 7.88821 9.38458 8.88475 -159.244 -56.2404 154.686
lowerback 24.6264 3.21417 -5.36257
upperback 3.26497 2.81993 3.81747
thorax -10.5801 1.47193 6.49152
lowerneck -8.94814 2.22212 -1.33836
upperneck -17.6419 0.963179 -6.94771
head -4.27935 0.256491 -2.09664
rclavicle 9.54166e-015 -7.95139e-014
rhumerus -8.39489 -32.3318 -77.5383
rradius 68.5828
rwrist -52.4322
rhand 6.13801 -21.2184
rfingers 7.12502
rthumb 31.4548 -48.5322
lclavicle 9.54166e-015 -7.95139e-014
lhumerus 23.9823 25.3382 51.6017
lradius 124.356
lwrist -29.8957
lhand -48.046 -43.4723
lfingers 7.12502
lthumb -20.7126 -14.5576
rfemur -68.8102 -21.448 -15.6983
rtibia 68.0372
rfoot 142.216 3.20935
rtoes -41.6735
lfemur -57.3522 -3.2849 -26.8005
ltibia 55.7271
lfoot 0 0
ltoes 0
165
root 7.89377 9.40835 8.88456 -159.057 -56.2339 154.594
lowerback 24.5415 3.14588 -5.15461
upperback 3.22993 2.79462 3.83131
thorax -10.5618 1.45367 6.39437
lowerneck -8.7434 2.22662 -1.32377
upperneck -17.9427 0.928214 -6.92654
head -4.43101 0.240396 -2.10132
rclavicle -4.6118e-014 4.13472e-014
rhumerus -8.66719 -32.4189 -77.5078
rradius 69.0881
rwrist -52.3142
rhand 6.13232 -21.6063
rfingers 7.12502
rthumb 31.4494 -48.9211
lclavicle -4.6118e-014 4.13472e-014
lhumerus 24.194 25.5223 51.5423
lradius 124.174
lwrist -29.7941
lhand -48.0423 -43.2251
lfingers 7.12502
lthumb -20.709 -14.31
rfemur -68.8445 -21.6667 -15.636
rtibia 68.2215
rfoot 142.291 3.59347
rtoes -42.6628
lfemur -57.33 -3.37295 -26.8088
ltibia 55.9658
lfoot 0 0
ltoes 0
166
root 7.89896 9.44601 8.87829 -158.934 -56.1134 154.534
lowerback 24.4677 3.18151 -5.04367
upperback 3.17086 2.87925 3.81046
thorax -10.5961 1.49383 6.27651
lowerneck -8.65092 2.18435 -1.35678
upperneck -18.1194 0.864804 -6.80652
head -4.51707 0.208939 -2.05845
rclavicle 1.59028e-014 -1.27222e-014
rhumerus -8.9475 -32.7017 -77.4837
rradius 69.3036
rwrist -52.0156
rhand 6.13607 -21.5443
rfingers 7.12502
rthumb 31.453 -48.8585
lclavicle 1.59028e-014 -1.27222e-014
lhumerus 24.532 25.5846 51.4192
lradius 123.973
lwrist -29.4425
lhand -48.2426 -42.6188
lfingers 7.12502
lthumb -20.9015 -13.7248
rfemur -68.8595 -21.7483 -15.5141
rtibia 68.5242
rfoot 142.488 4.29202
rtoes -44.1354
lfemur -57.1533 -3.39451 -26.8099
ltibia 56.4101
lfoot 0 0
ltoes 0
167
root 7.90478 9.50019 8.86552 -159.008 -55.9589 154.675
lowerback 24.379 3.28414 -5.05205
upperback 3.16994 3.0312 3.95232
thorax -10.5821 1.56894 6.39262
lowerneck -8.27278 2.19292 -1.31588
upperneck -18.9852 0.733906 -7.14264
head -4.33561 0.190848 -1.96733
rclavicle -1.82882e-014 -6.36111e-015
rhumerus -9.04894 -32.8449 -77.3632
rradius 69.3026
rwrist -51.8284
rhand 5.82726 -21.204
rfingers 7.12502
rthumb 31.1587 -48.5751
lclavicle -1.82882e-014 -6.36111e-015
lhumerus 24.9043 25.8763 51.4399
lradius 123.733
lwrist -29.0581
lhand -48.6348 -41.9843
lfingers 7.12502
lthumb -21.2782 -13.1323
rfemur -68.7523 -21.5996 -15.2367
rtibia 69.0195
rfoot 142.711 5.64305
rtoes -46.5883
lfemur -56.817 -3.28732 -26.6762
ltibia 57.0581
lfoot 0 0
ltoes 0
168
root 7.90795 9.5667 8.85641 -158.852 -55.87 154.756
lowerback 24.1682 3.26599 -4.79354
upperback 3.12774 3.09022 3.94752
thorax -10.5128 1.58776 6.21649
lowerneck -8.25123 2.19841 -1.21814
upperneck -19.3348 0.67516 -7.19396
head -4.44747 0.153133 -2.00166
rclavicle -5.32743e-014 -2.22639e-014
rhumerus -9.11225 -32.9704 -77.3885
rradius 69.2637
rwrist -51.8597
rhand 5.48496 -21.1442
rfingers 7.12502
rthumb 30.8324 -48.5775
lclavicle -5.32743e-014 -2.22639e-014
lhumerus 25.5752 26.1953 51.3792
lradius 123.342
lwrist -28.8238
lhand -48.8092 -41.7902
lfingers 7.12502
lthumb -21.4458 -12.9573
rfemur -68.5407 -21.4157 -15.0849
rtibia 69.649
rfoot 142.746 5.98791
rtoes -46.9744
lfemur -56.6578 -3.29053 -26.5565
ltibia 57.725
lfoot 0 0
ltoes 0
